<svg width="32" height="32" viewBox="0 0 32 32" fill="none" xmlns="http://www.w3.org/2000/svg">
<rect width="32" height="32" fill="#D2443A"/>
<path d="M12.072 21.08C11.24 21.08 10.4933 20.8987 9.832 20.536C9.18133 20.1627 8.66933 19.656 8.296 19.016C7.92267 18.3653 7.736 17.624 7.736 16.792C7.736 15.9493 7.92267 15.208 8.296 14.568C8.66933 13.928 9.18133 13.4267 9.832 13.064C10.4933 12.7013 11.24 12.52 12.072 12.52C12.7867 12.52 13.432 12.6587 14.008 12.936C14.584 13.2133 15.0373 13.6293 15.368 14.184L14.52 14.76C14.232 14.3333 13.8747 14.0187 13.448 13.816C13.0213 13.6133 12.5573 13.512 12.056 13.512C11.4587 13.512 10.92 13.6507 10.44 13.928C9.96 14.1947 9.58133 14.5733 9.304 15.064C9.02667 15.5547 8.888 16.1307 8.888 16.792C8.888 17.4533 9.02667 18.0293 9.304 18.52C9.58133 19.0107 9.96 19.3947 10.44 19.672C10.92 19.9387 11.4587 20.072 12.056 20.072C12.5573 20.072 13.0213 19.9707 13.448 19.768C13.8747 19.5653 14.232 19.256 14.52 18.84L15.368 19.416C15.0373 19.96 14.584 20.376 14.008 20.664C13.432 20.9413 12.7867 21.08 12.072 21.08ZM19.6346 21L15.9066 12.6H17.0906L20.5146 20.392H19.9546L23.4266 12.6H24.5466L20.8026 21H19.6346Z" fill="white"/>
</svg>
