<svg width="105" height="39" viewBox="0 0 105 39" fill="none" xmlns="http://www.w3.org/2000/svg">
<g clip-path="url(#clip0_10_55)">
<path d="M54.2095 12.9161L59.205 12.5932C59.3189 13.41 59.5279 14.0178 59.8698 14.4546C60.4206 15.1384 61.1804 15.4803 62.1871 15.4803C62.9278 15.4803 63.5167 15.3094 63.9155 14.9485C64.2954 14.6636 64.5233 14.2077 64.5233 13.7329C64.5233 13.277 64.3144 12.8401 63.9535 12.5552C63.5736 12.2133 62.6809 11.8714 61.2753 11.5675C58.977 11.0547 57.3245 10.3709 56.3558 9.49715C55.3871 8.6804 54.8363 7.48376 54.8743 6.21115C54.8743 5.33742 55.1402 4.46368 55.6341 3.7419C56.2039 2.92515 56.9826 2.27935 57.9134 1.91846C58.92 1.48159 60.3256 1.25366 62.0921 1.25366C64.2574 1.25366 65.9099 1.65254 67.0496 2.46929C68.1892 3.26705 68.873 4.55865 69.082 6.32512L64.1435 6.61003C64.0105 5.85026 63.7446 5.29943 63.3077 4.93854C62.8708 4.57765 62.301 4.4067 61.5602 4.4067C60.9524 4.4067 60.4966 4.53966 60.1927 4.78659C59.9077 5.01452 59.7178 5.35641 59.7368 5.7363C59.7368 6.02121 59.8888 6.28713 60.1167 6.45808C60.3636 6.68601 60.9524 6.89494 61.8831 7.08489C64.1814 7.57873 65.8149 8.07258 66.8216 8.58543C67.8283 9.09827 68.5501 9.72508 68.987 10.4659C69.4428 11.2256 69.6708 12.0994 69.6518 12.9921C69.6518 14.0558 69.3479 15.1194 68.7401 16.0122C68.1133 16.9429 67.2395 17.6647 66.2138 18.1015C65.1312 18.5764 63.7636 18.8233 62.1301 18.8233C59.243 18.8233 57.2486 18.2725 56.1279 17.1518C55.0072 16.0312 54.3424 14.6256 54.2095 12.9161ZM1.19664 18.5384V1.55757H9.95297C11.5675 1.55757 12.8211 1.69053 13.6758 1.97544C14.5116 2.24136 15.2524 2.79219 15.7462 3.53297C16.297 4.34972 16.563 5.29943 16.544 6.28713C16.6009 7.95862 15.7462 9.55413 14.2836 10.3899C13.7138 10.7128 13.087 10.9407 12.4412 11.0547C12.9161 11.1876 13.3909 11.4156 13.8088 11.6815C14.1317 11.9474 14.3976 12.2513 14.6445 12.5742C14.9295 12.8971 15.1764 13.258 15.3853 13.6379L17.9305 18.5574H11.9664L9.15521 13.334C8.79432 12.6692 8.49041 12.2323 8.2055 12.0234C7.82562 11.7575 7.36976 11.6245 6.91389 11.6245H6.45803V18.5194H1.19664V18.5384ZM6.45803 8.43348H8.68036C9.15521 8.39549 9.61107 8.31951 10.0669 8.20554C10.4088 8.14856 10.7127 7.95862 10.9217 7.67371C11.4345 6.98991 11.3585 6.02121 10.7317 5.43239C10.3898 5.14748 9.72504 4.99552 8.77533 4.99552H6.45803V8.43348ZM0 33.088L4.99548 32.7651C5.10944 33.5818 5.31838 34.1896 5.66028 34.6265C6.19211 35.3103 6.97088 35.6712 7.97757 35.6712C8.71834 35.6712 9.30716 35.5002 9.70604 35.1393C10.0859 34.8354 10.3139 34.3986 10.3139 33.9237C10.3139 33.4678 10.1049 33.031 9.74403 32.7461C9.36415 32.4042 8.47142 32.0623 7.04685 31.7584C4.74855 31.2455 3.09606 30.5617 2.12735 29.688C1.15865 28.8712 0.607815 27.6746 0.645803 26.402C0.645803 25.5283 0.911722 24.6545 1.40557 23.9328C1.9754 23.116 2.75416 22.4702 3.68488 22.1093C4.69157 21.6724 6.09714 21.4445 7.8636 21.4445C10.0289 21.4445 11.6814 21.8434 12.8211 22.6601C13.9607 23.4769 14.6255 24.7495 14.8345 26.516L9.89598 26.8009C9.76303 26.0411 9.49711 25.4903 9.06024 25.1294C8.64237 24.7685 8.05355 24.5975 7.31277 24.6165C6.70496 24.6165 6.2491 24.7495 5.94519 25.0154C5.64128 25.2434 5.47033 25.5852 5.48933 25.9651C5.48933 26.25 5.64128 26.516 5.86921 26.6869C6.11614 26.9148 6.70496 27.1238 7.63567 27.3137C9.93397 27.8076 11.5675 28.3014 12.5742 28.8143C13.5809 29.3271 14.3026 29.9539 14.7395 30.6947C15.1954 31.4545 15.4233 32.3282 15.4233 33.2019C15.4233 34.2656 15.1004 35.3103 14.5116 36.203C13.8848 37.1337 13.011 37.8555 11.9853 38.2924C10.9027 38.7672 9.5351 39.0142 7.90159 39.0142C5.01447 39.0142 3.02008 38.4633 1.89942 37.3427C0.778763 36.203 0.151954 34.7974 0 33.088H0Z" fill="black"/>
<path d="M25.2624 31.7583L29.8589 33.1449C29.612 34.3035 29.0992 35.4052 28.3964 36.3739C27.7506 37.2286 26.8959 37.8934 25.9271 38.3303C24.9394 38.7672 23.6858 38.9951 22.1663 38.9951C20.3239 38.9951 18.8043 38.7292 17.6457 38.1974C16.468 37.6655 15.4613 36.7158 14.6066 35.3672C13.7519 34.0186 13.334 32.2902 13.334 30.1818C13.334 27.3707 14.0748 25.2053 15.5753 23.7048C17.0758 22.2042 19.1842 21.4445 21.9194 21.4445C24.0657 21.4445 25.7372 21.8813 26.9718 22.7361C28.1875 23.6098 29.0992 24.9394 29.707 26.7248L25.0724 27.7505C24.9584 27.3517 24.7875 26.9528 24.5596 26.6109C24.2747 26.212 23.9138 25.9081 23.4769 25.6802C23.04 25.4522 22.5462 25.3573 22.0523 25.3573C20.8557 25.3573 19.944 25.8321 19.3172 26.8008C18.8423 27.5036 18.5954 28.6243 18.5954 30.1438C18.5954 32.0242 18.8803 33.3158 19.4501 34.0186C20.0199 34.7214 20.8177 35.0633 21.8624 35.0633C22.8691 35.0633 23.6288 34.7784 24.1417 34.2276C24.6545 33.6387 25.0344 32.822 25.2624 31.7583ZM35.9941 21.7294H41.2365V27.6746H46.9727V21.7294H52.2531V38.7102H46.9727V31.8343H41.2365V38.7102H35.9941V21.7294Z" fill="black"/>
<path d="M51.5312 30.2197C51.5312 27.4466 52.31 25.2812 53.8485 23.7427C55.3871 22.2042 57.5524 21.4254 60.3066 21.4254C63.1367 21.4254 65.3021 22.1852 66.8406 23.7047C68.3791 25.2243 69.1389 27.3516 69.1389 30.0868C69.1389 32.0812 68.797 33.6957 68.1322 34.9683C67.4864 36.2219 66.4797 37.2476 65.2451 37.9314C63.9725 38.6342 62.3959 38.9951 60.5155 38.9951C58.5971 38.9951 57.0206 38.6912 55.767 38.0833C54.4754 37.4375 53.4117 36.4308 52.7089 35.1962C51.9301 33.8666 51.5312 32.2141 51.5312 30.2197ZM56.7737 30.2387C56.7737 31.9482 57.0966 33.1828 57.7234 33.9426C58.3502 34.6834 59.2239 35.0633 60.3256 35.0633C61.4462 35.0633 62.32 34.7024 62.9468 33.9616C63.5736 33.2208 63.8775 31.9102 63.8775 30.0108C63.8775 28.4153 63.5546 27.2376 62.9088 26.5159C62.263 25.7751 61.3892 25.4142 60.2876 25.4142C59.3189 25.3762 58.3882 25.7941 57.7424 26.5349C57.0966 27.2756 56.7737 28.5103 56.7737 30.2387ZM74.5142 30.2197C74.5142 27.4466 75.293 25.2812 76.8315 23.7427C78.3701 22.2042 80.5354 21.4254 83.2896 21.4254C86.1197 21.4254 88.304 22.1852 89.8236 23.7047C91.3431 25.2243 92.1219 27.3516 92.1219 30.0868C92.1219 32.0812 91.78 33.6957 91.1152 34.9683C90.4694 36.2219 89.4627 37.2476 88.2281 37.9314C86.9555 38.6342 85.3789 38.9951 83.4985 38.9951C81.5801 38.9951 80.0036 38.6912 78.75 38.0833C77.4584 37.4375 76.3947 36.4308 75.6919 35.1962C74.9131 33.8666 74.5142 32.2141 74.5142 30.2197ZM79.7567 30.2387C79.7567 31.9482 80.0796 33.1828 80.7064 33.9426C81.3332 34.6834 82.2069 35.0633 83.3086 35.0633C84.4292 35.0633 85.303 34.7024 85.9298 33.9616C86.5566 33.2208 86.8605 31.9102 86.8605 30.0108C86.8605 28.4153 86.5376 27.2376 85.8918 26.5159C85.246 25.7751 84.3722 25.4142 83.2706 25.4142C82.3019 25.3762 81.3522 25.7941 80.7254 26.5349C80.0796 27.2756 79.7567 28.5103 79.7567 30.2387Z" fill="black"/>
<path d="M91.571 21.7294H96.8134V34.5315H105V38.7102H91.552V21.7294H91.571Z" fill="black"/>
<path d="M85.7927 20.7494C91.0707 16.772 92.6983 10.0297 89.428 5.69C86.1577 1.35032 79.2279 1.05663 73.9499 5.03402C68.672 9.01141 67.0444 15.7537 70.3147 20.0934C73.585 24.4331 80.5148 24.7268 85.7927 20.7494Z" fill="white"/>
<path d="M85.7927 20.7495C91.0707 16.7721 92.6983 10.0298 89.428 5.69012C86.1577 1.35045 79.2279 1.05676 73.9499 5.03414C68.672 9.01153 67.0444 15.7538 70.3147 20.0935C73.585 24.4332 80.5148 24.7269 85.7927 20.7495Z" fill="white"/>
<path d="M85.7927 20.7495C91.0707 16.7721 92.6983 10.0298 89.428 5.69012C86.1577 1.35045 79.2279 1.05676 73.9499 5.03414C68.672 9.01153 67.0444 15.7538 70.3147 20.0935C73.585 24.4332 80.5148 24.7269 85.7927 20.7495Z" stroke="black" stroke-width="2" stroke-miterlimit="10"/>
<path d="M74.5332 11.6434L76.4326 10.3138L78.7689 13.6378C79.1678 14.1697 79.4717 14.7395 79.6996 15.3663C79.8326 15.8411 79.7946 16.354 79.6047 16.8099C79.3577 17.3797 78.9589 17.8545 78.427 18.1964C77.8002 18.6333 77.2684 18.8802 76.8125 18.9562C76.3756 19.0322 75.9198 18.9562 75.5019 18.7663C75.046 18.5383 74.6472 18.2154 74.3433 17.7976L75.9768 16.278C76.1097 16.487 76.2807 16.6769 76.4706 16.8288C76.6036 16.9238 76.7555 16.9808 76.9265 16.9808C77.0594 16.9808 77.1924 16.9238 77.2874 16.8478C77.4773 16.7339 77.6103 16.5059 77.5913 16.278C77.5343 15.9551 77.4013 15.6322 77.1924 15.3853L74.5332 11.6434ZM80.2315 13.7518L81.9599 12.3842C82.1499 12.6121 82.3968 12.7831 82.6627 12.8781C83.0426 12.992 83.4415 12.916 83.7644 12.6691C83.9923 12.5172 84.1823 12.3082 84.2582 12.0423C84.3722 11.7004 84.1823 11.3205 83.8404 11.2066C83.7834 11.1876 83.7264 11.1686 83.6694 11.1686C83.4415 11.1496 83.0426 11.2445 82.4538 11.4915C81.4851 11.8904 80.7253 12.0423 80.1555 11.9853C79.6047 11.9283 79.0918 11.6434 78.7879 11.1686C78.56 10.8457 78.446 10.4658 78.427 10.0859C78.427 9.64903 78.541 9.21217 78.7879 8.85128C79.1488 8.33843 79.5857 7.90157 80.1175 7.55967C80.9153 7.00884 81.618 6.74292 82.2259 6.74292C82.8337 6.74292 83.4035 7.02783 83.9353 7.61665L82.2259 8.96524C81.884 8.52838 81.2382 8.43341 80.8013 8.7753L80.7443 8.83228C80.5544 8.94625 80.4214 9.1172 80.3454 9.32613C80.2885 9.47809 80.3264 9.64903 80.4214 9.78199C80.4974 9.87697 80.6114 9.95294 80.7443 9.95294C80.8963 9.97194 81.1622 9.89596 81.5421 9.72501C82.4918 9.32613 83.2136 9.0982 83.7074 9.02223C84.1253 8.94625 84.5621 8.98424 84.961 9.15519C85.3219 9.30714 85.6258 9.57306 85.8348 9.89596C86.1007 10.2758 86.2526 10.7317 86.2716 11.2066C86.2906 11.7004 86.1577 12.1753 85.8917 12.5931C85.5499 13.106 85.113 13.5428 84.6001 13.8847C83.5555 14.6065 82.7007 14.9104 82.0169 14.7965C81.2761 14.6825 80.6683 14.3026 80.2315 13.7518Z" fill="black"/>
</g>
<defs>
<clipPath id="clip0_10_55">
<rect width="105" height="38.9951" fill="white"/>
</clipPath>
</defs>
</svg>
